<mxfile host="Electron" agent="Mozilla/5.0 (X11; Linux x86_64) AppleWebKit/537.36 (KHTML, like Gecko) draw.io/24.7.17 Chrome/128.0.6613.36 Electron/32.0.1 Safari/537.36" version="24.7.17" pages="2">
  <diagram name="Page-1" id="ngQuTP7B_5aJ66lEHHDm">
    <mxGraphModel dx="1004" dy="635" grid="1" gridSize="10" guides="1" tooltips="1" connect="1" arrows="1" fold="1" page="1" pageScale="1" pageWidth="850" pageHeight="1100" math="0" shadow="0">
      <root>
        <mxCell id="0" />
        <mxCell id="1" parent="0" />
        <mxCell id="YM618WeO1q_Uytd7JueV-23" style="edgeStyle=orthogonalEdgeStyle;rounded=0;orthogonalLoop=1;jettySize=auto;html=1;exitX=0.5;exitY=1;exitDx=0;exitDy=0;entryX=0.5;entryY=0;entryDx=0;entryDy=0;" edge="1" parent="1" source="YM618WeO1q_Uytd7JueV-7" target="YM618WeO1q_Uytd7JueV-13">
          <mxGeometry relative="1" as="geometry" />
        </mxCell>
        <mxCell id="YM618WeO1q_Uytd7JueV-7" value="&amp;nbsp;Worker Processes" style="rounded=0;whiteSpace=wrap;html=1;fillColor=#d5e8d4;strokeColor=#82b366;" vertex="1" parent="1">
          <mxGeometry x="200" y="100" width="120" height="60" as="geometry" />
        </mxCell>
        <mxCell id="YM618WeO1q_Uytd7JueV-12" value="" style="swimlane;startSize=0;fillColor=#f5f5f5;fontColor=#333333;strokeColor=#666666;" vertex="1" parent="1">
          <mxGeometry x="180" y="220" width="460" height="240" as="geometry" />
        </mxCell>
        <mxCell id="YM618WeO1q_Uytd7JueV-14" value="&lt;h3&gt;Temporal Service&lt;/h3&gt;" style="text;html=1;align=center;verticalAlign=middle;resizable=0;points=[];autosize=1;strokeColor=none;fillColor=none;" vertex="1" parent="YM618WeO1q_Uytd7JueV-12">
          <mxGeometry x="10" y="-20" width="140" height="60" as="geometry" />
        </mxCell>
        <mxCell id="YM618WeO1q_Uytd7JueV-25" style="edgeStyle=orthogonalEdgeStyle;rounded=0;orthogonalLoop=1;jettySize=auto;html=1;exitX=0.5;exitY=1;exitDx=0;exitDy=0;entryX=0.5;entryY=0;entryDx=0;entryDy=0;" edge="1" parent="YM618WeO1q_Uytd7JueV-12" source="YM618WeO1q_Uytd7JueV-13" target="YM618WeO1q_Uytd7JueV-20">
          <mxGeometry relative="1" as="geometry" />
        </mxCell>
        <mxCell id="YM618WeO1q_Uytd7JueV-26" style="edgeStyle=orthogonalEdgeStyle;rounded=0;orthogonalLoop=1;jettySize=auto;html=1;exitX=0.5;exitY=1;exitDx=0;exitDy=0;" edge="1" parent="YM618WeO1q_Uytd7JueV-12" source="YM618WeO1q_Uytd7JueV-13" target="YM618WeO1q_Uytd7JueV-21">
          <mxGeometry relative="1" as="geometry" />
        </mxCell>
        <mxCell id="YM618WeO1q_Uytd7JueV-27" style="edgeStyle=orthogonalEdgeStyle;rounded=0;orthogonalLoop=1;jettySize=auto;html=1;exitX=0.5;exitY=1;exitDx=0;exitDy=0;entryX=0.5;entryY=0;entryDx=0;entryDy=0;" edge="1" parent="YM618WeO1q_Uytd7JueV-12" source="YM618WeO1q_Uytd7JueV-13" target="YM618WeO1q_Uytd7JueV-15">
          <mxGeometry relative="1" as="geometry" />
        </mxCell>
        <mxCell id="YM618WeO1q_Uytd7JueV-13" value="&lt;h4&gt;&lt;font style=&quot;font-size: 17px;&quot;&gt;Frontend Gateway&lt;/font&gt;&lt;/h4&gt;" style="rounded=0;whiteSpace=wrap;html=1;fillColor=#dae8fc;strokeColor=#6c8ebf;" vertex="1" parent="YM618WeO1q_Uytd7JueV-12">
          <mxGeometry x="35" y="30" width="395" height="90" as="geometry" />
        </mxCell>
        <mxCell id="YM618WeO1q_Uytd7JueV-21" value="&lt;h3&gt;History&lt;/h3&gt;" style="rounded=0;whiteSpace=wrap;html=1;fillColor=#dae8fc;strokeColor=#6c8ebf;" vertex="1" parent="YM618WeO1q_Uytd7JueV-12">
          <mxGeometry x="172.5" y="160" width="120" height="60" as="geometry" />
        </mxCell>
        <mxCell id="YM618WeO1q_Uytd7JueV-20" value="&lt;h3&gt;Matching&lt;/h3&gt;" style="rounded=0;whiteSpace=wrap;html=1;fillColor=#dae8fc;strokeColor=#6c8ebf;" vertex="1" parent="YM618WeO1q_Uytd7JueV-12">
          <mxGeometry x="35" y="160" width="120" height="60" as="geometry" />
        </mxCell>
        <mxCell id="YM618WeO1q_Uytd7JueV-15" value="&lt;h3&gt;System Worker&lt;/h3&gt;" style="rounded=0;whiteSpace=wrap;html=1;fillColor=#dae8fc;strokeColor=#6c8ebf;" vertex="1" parent="YM618WeO1q_Uytd7JueV-12">
          <mxGeometry x="310" y="160" width="120" height="60" as="geometry" />
        </mxCell>
        <mxCell id="YM618WeO1q_Uytd7JueV-24" style="edgeStyle=orthogonalEdgeStyle;rounded=0;orthogonalLoop=1;jettySize=auto;html=1;exitX=0.5;exitY=1;exitDx=0;exitDy=0;" edge="1" parent="1" source="YM618WeO1q_Uytd7JueV-22" target="YM618WeO1q_Uytd7JueV-13">
          <mxGeometry relative="1" as="geometry" />
        </mxCell>
        <mxCell id="YM618WeO1q_Uytd7JueV-22" value="Web UI" style="rounded=0;whiteSpace=wrap;html=1;fillColor=#d5e8d4;strokeColor=#82b366;" vertex="1" parent="1">
          <mxGeometry x="470" y="100" width="120" height="60" as="geometry" />
        </mxCell>
      </root>
    </mxGraphModel>
  </diagram>
  <diagram id="vISFFzJsbYoA5Z7FROvn" name="Page-2">
    <mxGraphModel dx="1004" dy="635" grid="1" gridSize="10" guides="1" tooltips="1" connect="1" arrows="1" fold="1" page="1" pageScale="1" pageWidth="850" pageHeight="1100" math="0" shadow="0">
      <root>
        <mxCell id="0" />
        <mxCell id="1" parent="0" />
        <mxCell id="Y__mBOG38Lt76BDG0EjE-2" value="Temporal Server" style="rounded=0;whiteSpace=wrap;html=1;fillColor=#d5e8d4;strokeColor=#82b366;" vertex="1" parent="1">
          <mxGeometry x="110" y="270" width="120" height="60" as="geometry" />
        </mxCell>
        <mxCell id="Y__mBOG38Lt76BDG0EjE-15" style="edgeStyle=orthogonalEdgeStyle;rounded=0;orthogonalLoop=1;jettySize=auto;html=1;exitX=0;exitY=0.5;exitDx=0;exitDy=0;entryX=1;entryY=0.5;entryDx=0;entryDy=0;" edge="1" parent="1" source="Y__mBOG38Lt76BDG0EjE-13" target="Y__mBOG38Lt76BDG0EjE-2">
          <mxGeometry relative="1" as="geometry" />
        </mxCell>
        <mxCell id="Y__mBOG38Lt76BDG0EjE-13" value="otel-collector" style="rounded=0;whiteSpace=wrap;html=1;fillColor=#d5e8d4;strokeColor=#82b366;" vertex="1" parent="1">
          <mxGeometry x="390" y="270" width="120" height="60" as="geometry" />
        </mxCell>
        <mxCell id="Y__mBOG38Lt76BDG0EjE-14" value="" style="image;aspect=fixed;html=1;points=[];align=center;fontSize=12;image=img/lib/azure2/other/Grafana.svg;" vertex="1" parent="1">
          <mxGeometry x="670" y="273.6" width="68" height="52.800000000000004" as="geometry" />
        </mxCell>
        <mxCell id="Y__mBOG38Lt76BDG0EjE-17" style="edgeStyle=orthogonalEdgeStyle;rounded=0;orthogonalLoop=1;jettySize=auto;html=1;exitX=1;exitY=0.5;exitDx=0;exitDy=0;entryX=-0.006;entryY=0.515;entryDx=0;entryDy=0;entryPerimeter=0;" edge="1" parent="1" source="Y__mBOG38Lt76BDG0EjE-13" target="Y__mBOG38Lt76BDG0EjE-14">
          <mxGeometry relative="1" as="geometry" />
        </mxCell>
        <mxCell id="Y__mBOG38Lt76BDG0EjE-21" value="&lt;font style=&quot;font-size: 15px;&quot;&gt;Request metrics from prometheus endpoint&lt;/font&gt;" style="text;html=1;align=center;verticalAlign=middle;whiteSpace=wrap;rounded=0;" vertex="1" parent="1">
          <mxGeometry x="230" y="235" width="150" height="70" as="geometry" />
        </mxCell>
        <mxCell id="Y__mBOG38Lt76BDG0EjE-22" value="&lt;font style=&quot;font-size: 15px;&quot;&gt;Push to Grafana&lt;/font&gt;" style="text;html=1;align=center;verticalAlign=middle;whiteSpace=wrap;rounded=0;" vertex="1" parent="1">
          <mxGeometry x="540" y="240" width="110" height="60" as="geometry" />
        </mxCell>
      </root>
    </mxGraphModel>
  </diagram>
</mxfile>
